HIERARCHY
ROOT joint_Root
{
	OFFSET 0.0 0.0 0.0
	CHANNELS 6 Xposition Yposition Zposition Zrotation Xrotation Yrotation 
	JOINT Hips
	{
		OFFSET 4.5925 91.4895 -427.239
		CHANNELS 6 Xposition Yposition Zposition Zrotation Xrotation Yrotation 
		JOINT Spine
		{
			OFFSET 15.7357 0.0 0.0
			CHANNELS 6 Xposition Yposition Zposition Zrotation Xrotation Yrotation 
			JOINT Chest
			{
				OFFSET 8.98455 -0.406207 0.0
				CHANNELS 6 Xposition Yposition Zposition Zrotation Xrotation Yrotation 
				JOINT Neck
				{
					OFFSET 16.3773 0.0 0.0
					CHANNELS 6 Xposition Yposition Zposition Zrotation Xrotation Yrotation 
					JOINT Head
					{
						OFFSET 6.45672 0.0 0.0
						CHANNELS 6 Xposition Yposition Zposition Zrotation Xrotation Yrotation 
						End Site
						{
							OFFSET 0.0 0.0 0.0
						}
					}
				}
				JOINT Shoulder_L
				{
					OFFSET 12.9942 -0.242716 4.98039
					CHANNELS 6 Xposition Yposition Zposition Zrotation Xrotation Yrotation 
					JOINT UpperArm_L
					{
						OFFSET 5.34809 0.0 0.0
						CHANNELS 6 Xposition Yposition Zposition Zrotation Xrotation Yrotation 
						JOINT LowerArm_L
						{
							OFFSET 24.3286 1.87007e-05 0.0
							CHANNELS 6 Xposition Yposition Zposition Zrotation Xrotation Yrotation 
							JOINT Hand_L
							{
								OFFSET 22.2916 0.0 0.0
								CHANNELS 6 Xposition Yposition Zposition Zrotation Xrotation Yrotation 
								End Site
								{
									OFFSET 0.0 0.0 0.0
								}
							}
						}
					}
				}
				JOINT Shoulder_R
				{
					OFFSET 12.9945 -0.242716 -4.98039
					CHANNELS 6 Xposition Yposition Zposition Zrotation Xrotation Yrotation 
					JOINT UpperArm_R
					{
						OFFSET -5.34813 0.0 0.0
						CHANNELS 6 Xposition Yposition Zposition Zrotation Xrotation Yrotation 
						JOINT LowerArm_R
						{
							OFFSET -24.3289 0.000322201 0.0
							CHANNELS 6 Xposition Yposition Zposition Zrotation Xrotation Yrotation 
							JOINT Hand_R
							{
								OFFSET -22.2915 -0.000108084 0.0
								CHANNELS 6 Xposition Yposition Zposition Zrotation Xrotation Yrotation 
								End Site
								{
									OFFSET 0.0 0.0 0.0
								}
							}
						}
					}
				}
			}
		}
		JOINT UpperLeg_L
		{
			OFFSET -2.19248 -6.46944 0.0
			CHANNELS 6 Xposition Yposition Zposition Zrotation Xrotation Yrotation 
			JOINT LowerLeg_L
			{
				OFFSET 39.0811 0.0 -1.23785e-05
				CHANNELS 6 Xposition Yposition Zposition Zrotation Xrotation Yrotation 
				JOINT Foot_L
				{
					OFFSET 40.9854 0.0 -1.26872e-05
					CHANNELS 6 Xposition Yposition Zposition Zrotation Xrotation Yrotation 
					JOINT Toes_L
					{
						OFFSET 11.7543 0.0 0.0
						CHANNELS 6 Xposition Yposition Zposition Zrotation Xrotation Yrotation 
						End Site
						{
							OFFSET 0.0 0.0 0.0
						}
					}
				}
			}
		}
		JOINT UpperLeg_R
		{
			OFFSET -2.19251 6.46944 0.0
			CHANNELS 6 Xposition Yposition Zposition Zrotation Xrotation Yrotation 
			JOINT LowerLeg_R
			{
				OFFSET -39.0811 -0.00228153 -0.0401928
				CHANNELS 6 Xposition Yposition Zposition Zrotation Xrotation Yrotation 
				JOINT Foot_R
				{
					OFFSET -40.9854 0.0 0.0
					CHANNELS 6 Xposition Yposition Zposition Zrotation Xrotation Yrotation 
					JOINT Toes_R
					{
						OFFSET -11.7543 0.0 0.0
						CHANNELS 6 Xposition Yposition Zposition Zrotation Xrotation Yrotation 
						End Site
						{
							OFFSET 0.0 0.0 0.0
						}
					}
				}
			}
		}
	}
}
MOTION
Frames:	9
Frame Time:	0.0333333
0.000000 0.000000 0.000000 0.000000 0.000000 -0.000000 1.783180 91.254100 2.545170 89.226500 -7.869310 3.852090 15.735700 0.000005 -0.000001 80.571700 85.583800 -84.596100 8.984550 -0.406207 -0.000000 0.917753 -1.206200 -8.032790 16.377300 -0.000001 -0.000001 5.886540 -2.557690 3.113540 6.456720 -0.000001 -0.000000 -3.664360 0.898070 1.218140 12.994200 -0.242716 4.980390 -90.676000 1.739540 -68.760700 5.348090 -0.000007 -0.000001 -61.283200 23.042400 -13.009100 24.328600 0.000019 0.000005 7.046910 21.938000 -18.308300 22.291600 -0.000001 0.000005 13.169500 5.119350 4.661820 12.994500 -0.242716 -4.980390 93.255300 -9.056220 -70.133900 -5.348130 -0.000001 -0.000004 -66.987700 -74.430900 -100.539000 -24.328900 0.000322 -0.000009 -6.634580 -1.643870 -76.106500 -22.291500 -0.000108 -0.000004 43.858800 5.665700 -14.778000 -2.192480 -6.469440 -0.000000 -177.311000 -15.234200 -2.840830 39.081100 -0.000007 -0.000012 -0.157912 0.305550 27.330700 40.985400 -0.000006 -0.000013 1.173480 2.772420 -70.643700 11.754300 -0.000000 0.000003 -0.000310 -0.002671 -16.676900 -2.192510 6.469440 -0.000001 175.761000 14.808700 175.517000 -39.081100 -0.002282 -0.040193 0.013514 -0.018896 28.380600 -40.985400 0.000008 0.000006 5.177950 12.799400 -69.893300 -11.754300 -0.000006 -0.000006 -0.004220 -0.053708 -18.757900
0.000000 0.000000 0.000000 0.000000 0.000000 -0.000000 1.585510 91.326700 2.358470 89.302200 -6.790020 3.480890 15.735700 0.000005 -0.000001 79.236000 85.548600 -83.315200 8.984550 -0.406207 -0.000000 0.943185 -1.419620 -8.140280 16.377300 -0.000001 -0.000001 6.118200 -3.142360 4.391420 6.456720 -0.000001 -0.000000 -3.847270 1.011400 0.633704 12.994200 -0.242716 4.980390 -90.415100 1.093470 -69.215000 5.348090 -0.000007 -0.000001 -62.999900 21.895000 -12.753200 24.328600 0.000019 0.000005 6.955040 20.645800 -19.084600 22.291600 -0.000001 0.000005 17.614800 5.105400 4.983580 12.994500 -0.242716 -4.980390 94.075500 -10.195400 -68.075200 -5.348130 -0.000001 -0.000004 -70.528900 -76.190300 -106.611000 -24.328900 0.000322 -0.000009 -9.363480 -1.404900 -81.550300 -22.291500 -0.000108 -0.000004 56.097700 5.662870 -27.172400 -2.192480 -6.469440 -0.000000 -177.343000 -14.833200 -3.350560 39.081100 -0.000007 -0.000012 -0.153519 0.300323 27.075400 40.985400 -0.000006 -0.000013 1.218420 3.475310 -70.279100 11.754300 -0.000000 0.000003 -0.000310 -0.002671 -16.677000 -2.192510 6.469440 -0.000001 175.957000 15.483600 175.245000 -39.081100 -0.002282 -0.040193 0.014575 -0.021052 28.159500 -40.985400 0.000008 0.000006 5.165990 12.296100 -69.653800 -11.754300 -0.000006 -0.000006 -0.004243 -0.053940 -18.767400
0.000000 0.000000 0.000000 0.000000 0.000000 -0.000000 1.253630 91.360000 2.233870 89.160400 -5.823400 3.468470 15.735700 0.000005 -0.000001 76.152000 85.555900 -80.472600 8.984550 -0.406207 -0.000000 0.808912 -1.864750 -8.621650 16.377300 -0.000001 -0.000001 6.879120 -3.554850 5.282350 6.456720 -0.000001 -0.000000 -3.665200 0.902151 1.003890 12.994200 -0.242716 4.980390 -90.126400 0.338572 -69.529400 5.348090 -0.000007 -0.000001 -65.092300 20.366600 -11.990700 24.328600 0.000019 0.000005 6.986520 19.819100 -19.871800 22.291600 -0.000001 0.000005 20.797600 5.076970 5.631860 12.994500 -0.242716 -4.980390 94.158400 -9.856140 -66.987000 -5.348130 -0.000001 -0.000004 -53.873400 -74.699000 -89.237100 -24.328900 0.000322 -0.000009 -3.103300 -0.572171 -79.588600 -22.291500 -0.000108 -0.000004 65.244600 5.661570 -26.023200 -2.192480 -6.469440 -0.000000 -177.035000 -13.978700 -3.584050 39.081100 -0.000007 -0.000012 -0.154887 0.302186 27.137800 40.985400 -0.000006 -0.000013 1.032350 3.648490 -70.098400 11.754300 -0.000000 0.000003 -0.000310 -0.002677 -16.677200 -2.192510 6.469440 -0.000001 176.269000 16.486400 175.373000 -39.081100 -0.002282 -0.040193 0.015844 -0.023525 28.055200 -40.985400 0.000008 0.000006 5.429790 12.248100 -69.548000 -11.754300 -0.000006 -0.000006 -0.004348 -0.055007 -18.810800
0.000000 0.000000 0.000000 0.000000 0.000000 -0.000000 0.996916 91.320100 2.184040 88.811700 -5.782400 4.082050 15.735700 0.000005 -0.000001 74.467800 85.284600 -78.988500 8.984550 -0.406207 -0.000000 1.248270 -2.267650 -9.009590 16.377300 -0.000001 -0.000001 6.818880 -3.143250 4.452670 6.456720 -0.000001 -0.000000 -3.434420 0.674608 1.306430 12.994200 -0.242716 4.980390 -90.199600 0.530822 -69.395600 5.348090 -0.000007 -0.000001 -65.812500 20.197100 -12.021300 24.328600 0.000019 0.000005 6.330890 17.841700 -19.905800 22.291600 -0.000001 0.000005 21.534600 5.076990 5.633730 12.994500 -0.242716 -4.980390 93.416700 -8.633640 -68.313200 -5.348130 -0.000001 -0.000004 -34.938600 -70.994800 -68.160500 -24.328900 0.000322 -0.000009 -7.406940 -2.963780 -68.364500 -22.291500 -0.000108 -0.000004 52.445300 5.685850 -24.303700 -2.192480 -6.469440 -0.000000 -176.333000 -13.870800 -3.161450 39.081100 -0.000007 -0.000012 -0.162630 0.310912 27.613200 40.985400 -0.000006 -0.000013 0.862966 3.695590 -70.287100 11.754300 -0.000000 0.000003 -0.000315 -0.002709 -16.678300 -2.192510 6.469440 -0.000001 176.383000 17.602800 176.050000 -39.081100 -0.002282 -0.040193 0.013749 -0.019506 28.164500 -40.985400 0.000008 0.000006 5.719590 13.310100 -69.599700 -11.754300 -0.000006 -0.000006 -0.004344 -0.054975 -18.809500
0.000000 0.000000 0.000000 0.000000 0.000000 -0.000000 0.821822 91.229900 2.176740 88.332400 -6.746350 5.098850 15.735700 0.000005 -0.000001 77.595000 84.986200 -82.502800 8.984550 -0.406207 -0.000000 1.965930 -1.905020 -9.773950 16.377300 -0.000001 -0.000001 6.488280 -2.509590 2.978400 6.456720 -0.000001 -0.000000 -3.548180 0.859294 1.116820 12.994200 -0.242716 4.980390 -90.450200 1.194280 -69.343200 5.348090 -0.000007 -0.000001 -64.256800 21.874200 -13.030300 24.328600 0.000019 0.000005 5.154450 14.812600 -19.434700 22.291600 -0.000001 0.000005 19.243900 5.131760 4.364950 12.994500 -0.242716 -4.980390 92.654400 -7.497640 -70.442800 -5.348130 -0.000001 -0.000004 -29.137700 -65.225200 -58.354500 -24.328900 0.000322 -0.000009 -8.094310 -6.336820 -52.217200 -22.291500 -0.000108 -0.000004 31.187700 5.667170 -13.257500 -2.192480 -6.469440 -0.000000 -175.387000 -14.366500 -2.251230 39.081100 -0.000007 -0.000012 -0.171630 0.318291 28.334900 40.985400 -0.000006 -0.000013 0.650702 3.415190 -70.723000 11.754300 -0.000000 0.000003 -0.000327 -0.002796 -16.681400 -2.192510 6.469440 -0.000001 176.382000 18.427600 177.075000 -39.081100 -0.002282 -0.040193 0.011335 -0.014860 28.382800 -40.985400 0.000008 0.000006 6.249040 14.983000 -69.890200 -11.754300 -0.000006 -0.000006 -0.004364 -0.055169 -18.817400
0.000000 0.000000 0.000000 0.000000 0.000000 -0.000000 0.614411 91.157800 2.094570 87.890800 -8.140170 5.861570 15.735700 0.000005 -0.000001 81.024900 84.916500 -86.462100 8.984550 -0.406207 -0.000000 2.237490 -1.323590 -10.838000 16.377300 -0.000001 -0.000001 6.043450 -1.527870 1.023560 6.456720 -0.000001 -0.000000 -3.444610 0.944149 1.372310 12.994200 -0.242716 4.980390 -90.858300 2.229570 -68.939700 5.348090 -0.000007 -0.000001 -61.191800 23.830500 -14.145500 24.328600 0.000019 0.000005 5.154790 14.629100 -19.655400 22.291600 -0.000001 0.000005 14.872000 5.176310 3.293720 12.994500 -0.242716 -4.980390 92.002400 -6.806120 -73.566200 -5.348130 -0.000001 -0.000004 -30.028000 -58.947000 -53.352000 -24.328900 0.000322 -0.000009 -10.021400 -14.907700 -34.588100 -22.291500 -0.000108 -0.000004 16.794900 5.343540 -1.022530 -2.192480 -6.469440 -0.000000 -174.552000 -14.838900 -1.531940 39.081100 -0.000007 -0.000012 -0.183289 0.331645 28.928200 40.985400 -0.000006 -0.000013 0.286176 2.674900 -71.060300 11.754300 -0.000000 0.000003 -0.000327 -0.002797 -16.681500 -2.192510 6.469440 -0.000001 176.577000 18.516900 177.750000 -39.081100 -0.002282 -0.040193 0.008701 -0.009924 28.532200 -40.985400 0.000008 0.000006 6.654060 16.361600 -70.081500 -11.754300 -0.000006 -0.000006 -0.004351 -0.055043 -18.812300
0.000000 0.000000 0.000000 0.000000 0.000000 -0.000000 0.413600 91.107900 2.048720 87.531700 -9.756250 6.363590 15.735700 0.000005 -0.000001 87.458800 84.919600 -93.447600 8.984550 -0.406207 -0.000000 2.403970 -0.171228 -11.962000 16.377300 -0.000001 -0.000001 5.232850 -0.599144 -0.371986 6.456720 -0.000001 -0.000000 -3.497890 0.852694 1.104500 12.994200 -0.242716 4.980390 -91.229400 3.124200 -68.508800 5.348090 -0.000007 -0.000001 -58.080500 25.445400 -15.514900 24.328600 0.000019 0.000005 6.272680 17.227200 -20.361800 22.291600 -0.000001 0.000005 11.926000 5.195800 2.824650 12.994500 -0.242716 -4.980390 91.493800 -5.844200 -75.635600 -5.348130 -0.000001 -0.000004 -34.840500 -52.733200 -51.230100 -24.328900 0.000322 -0.000009 -10.071600 -31.977500 -18.583200 -22.291500 -0.000108 -0.000004 17.741700 5.042720 6.284400 -2.192480 -6.469440 -0.000000 -173.825000 -15.512200 -0.893041 39.081100 -0.000007 -0.000012 -0.194421 0.346509 29.296400 40.985400 -0.000006 -0.000013 -0.100908 1.915890 -71.326900 11.754300 -0.000000 0.000003 -0.000365 -0.003064 -16.690900 -2.192510 6.469440 -0.000001 176.882000 18.077800 178.179000 -39.081100 -0.002282 -0.040193 0.007591 -0.007865 28.588500 -40.985400 0.000008 0.000006 7.091510 17.376300 -70.281200 -11.754300 -0.000006 -0.000006 -0.004390 -0.055436 -18.828300
0.000000 0.000000 0.000000 0.000000 0.000000 -0.000000 0.252035 91.079200 2.000600 87.299300 -10.706600 6.600610 15.735700 0.000005 -0.000001 93.829000 84.782800 -100.227000 8.984550 -0.406207 -0.000000 2.732040 0.975652 -12.807300 16.377300 -0.000001 -0.000001 4.008610 0.119406 -1.454950 6.456720 -0.000001 -0.000000 -3.960700 0.540846 0.969094 12.994200 -0.242716 4.980390 -91.429400 3.540030 -67.996100 5.348090 -0.000007 -0.000001 -56.455000 26.314600 -17.155400 24.328600 0.000019 0.000005 7.067730 19.452300 -20.420300 22.291600 -0.000001 0.000005 12.069700 5.190120 2.965170 12.994500 -0.242716 -4.980390 91.095400 -4.374620 -75.926900 -5.348130 -0.000001 -0.000004 -50.803000 -53.633400 -55.938300 -24.328900 0.000322 -0.000009 -9.453040 -39.362400 -14.708200 -22.291500 -0.000108 -0.000004 27.485200 4.362570 18.525600 -2.192480 -6.469440 -0.000000 -173.438000 -15.605700 -0.599211 39.081100 -0.000007 -0.000012 -0.200437 0.353891 29.526700 40.985400 -0.000006 -0.000013 -0.436583 1.171820 -71.477700 11.754300 -0.000000 0.000003 -0.000362 -0.003045 -16.690300 -2.192510 6.469440 -0.000001 177.147000 17.773900 178.441000 -39.081100 -0.002282 -0.040193 0.006502 -0.005886 28.509900 -40.985400 0.000008 0.000006 7.349620 17.918900 -70.461300 -11.754300 -0.000006 -0.000006 -0.004329 -0.054818 -18.803100
0.000000 0.000000 0.000000 0.000000 0.000000 -0.000000 0.172713 91.026500 2.050660 87.212300 -10.769200 6.829750 15.735700 0.000005 -0.000001 96.410900 84.739600 -102.882000 8.984550 -0.406207 -0.000000 2.804830 1.452190 -12.965600 16.377300 -0.000001 -0.000001 3.566080 0.550223 -2.300310 6.456720 -0.000001 -0.000000 -4.384870 0.862005 0.696725 12.994200 -0.242716 4.980390 -91.481100 3.662160 -67.962100 5.348090 -0.000007 -0.000001 -57.742400 24.907300 -16.084900 24.328600 0.000019 0.000005 7.285770 19.793500 -20.684200 22.291600 -0.000001 0.000005 13.823700 5.168610 3.492070 12.994500 -0.242716 -4.980390 90.725400 -2.823650 -75.585600 -5.348130 -0.000001 -0.000004 -60.667400 -54.658200 -59.060100 -24.328900 0.000322 -0.000009 -11.651500 -44.952300 -16.268900 -22.291500 -0.000108 -0.000004 35.117700 4.380620 18.540100 -2.192480 -6.469440 -0.000000 -173.195000 -15.611100 -0.421452 39.081100 -0.000007 -0.000012 -0.206787 0.360896 29.812300 40.985400 -0.000006 -0.000013 -0.496616 1.217670 -71.661000 11.754300 -0.000000 0.000003 -0.000369 -0.003093 -16.692000 -2.192510 6.469440 -0.000001 177.148000 17.862900 178.797000 -39.081100 -0.002282 -0.040193 0.004895 -0.002928 28.502700 -40.985400 0.000008 0.000006 7.419400 18.043100 -70.785400 -11.754300 -0.000006 -0.000006 -0.004396 -0.055501 -18.831000
